<svg xmlns="http://www.w3.org/2000/svg" width="10.214" height="10.163" viewBox="0 0 10.214 10.163"><defs><style>.a{fill:#2f4858;}</style></defs><g transform="translate(0 -0.261)"><path class="a" d="M9.427,44.56a.254.254,0,0,0-.254.254v2.259a.764.764,0,0,1-.763.763H1.272a.764.764,0,0,1-.763-.763V40.444a.764.764,0,0,1,.763-.763H3.531a.254.254,0,0,0,0-.509H1.272A1.273,1.273,0,0,0,0,40.444v6.629a1.273,1.273,0,0,0,1.272,1.272H8.41a1.273,1.273,0,0,0,1.272-1.272V44.815a.254.254,0,0,0-.254-.254Zm0,0" transform="translate(0 -37.922)"/><path class="a" d="M115.019.6A1.145,1.145,0,0,0,113.4.6l-4.538,4.538a.254.254,0,0,0-.065.112L108.2,7.4a.254.254,0,0,0,.313.313l2.155-.6a.254.254,0,0,0,.112-.065l4.538-4.539a1.146,1.146,0,0,0,0-1.619Zm-5.6,4.7,3.714-3.715,1.2,1.2L110.614,6.5Zm-.239.48.957.957L108.81,7.1Zm5.781-3.626-.27.27-1.2-1.2.27-.27a.636.636,0,0,1,.9,0l.3.3A.637.637,0,0,1,114.958,2.154Zm0,0" transform="translate(-105.438)"/></g></svg>