<svg xmlns="http://www.w3.org/2000/svg" width="22.312" height="14.381" viewBox="0 0 22.312 14.381"><defs><style>.a{fill:#c1c1c1;}</style></defs><g transform="translate(0 -91)"><g transform="translate(0 91)"><path class="a" d="M18.938,94.43A16.116,16.116,0,0,0,15.5,92.089,9.824,9.824,0,0,0,11.156,91,9.824,9.824,0,0,0,6.81,92.089,16.118,16.118,0,0,0,3.374,94.43,20.976,20.976,0,0,0,0,98.19a20.973,20.973,0,0,0,3.374,3.761,16.117,16.117,0,0,0,3.435,2.341,9.824,9.824,0,0,0,4.346,1.089,9.824,9.824,0,0,0,4.346-1.089,16.118,16.118,0,0,0,3.435-2.341,20.973,20.973,0,0,0,3.374-3.761A20.972,20.972,0,0,0,18.938,94.43Zm-7.782,9.644c-2.772,0-5.282-1.679-6.9-3.088a20.963,20.963,0,0,1-2.653-2.8c1.06-1.352,4.957-5.883,9.553-5.883,2.772,0,5.282,1.679,6.9,3.088a20.965,20.965,0,0,1,2.653,2.8C19.649,99.542,15.752,104.073,11.156,104.073Z" transform="translate(0 -91)"/></g><g transform="translate(6.58 93.615)"><g transform="translate(0 0)"><path class="a" d="M155.576,151a4.576,4.576,0,1,0,4.576,4.576A4.581,4.581,0,0,0,155.576,151Zm0,7.844a3.268,3.268,0,1,1,3.268-3.268A3.272,3.272,0,0,1,155.576,158.844Z" transform="translate(-151 -151)"/></g></g></g></svg>